<?xml version="1.0"?>
<svg xmlns="http://www.w3.org/2000/svg" xmlns:xlink="http://www.w3.org/1999/xlink" version="1.1" id="Capa_1" x="0px" y="0px" width="512px" height="512px" viewBox="0 0 612 612" style="enable-background:new 0 0 612 612;" xml:space="preserve" class="hovered-paths"><g><g>
	<g id="_x31__26_">
		<g>
			<path d="M420.75,286.875h-95.625V191.25c0-10.557-8.568-19.125-19.125-19.125c-10.557,0-19.125,8.568-19.125,19.125v95.625     H191.25c-10.557,0-19.125,8.568-19.125,19.125c0,10.557,8.568,19.125,19.125,19.125h95.625v95.625     c0,10.557,8.568,19.125,19.125,19.125c10.557,0,19.125-8.568,19.125-19.125v-95.625h95.625c10.557,0,19.125-8.568,19.125-19.125     C439.875,295.443,431.307,286.875,420.75,286.875z M535.5,0h-459C34.253,0,0,34.253,0,76.5v459C0,577.747,34.253,612,76.5,612     h459c42.247,0,76.5-34.253,76.5-76.5v-459C612,34.253,577.747,0,535.5,0z M573.75,535.5c0,21.133-17.136,38.25-38.25,38.25h-459     c-21.133,0-38.25-17.117-38.25-38.25v-459c0-21.133,17.117-38.25,38.25-38.25h459c21.114,0,38.25,17.136,38.25,38.25V535.5z" data-original="#000000" class="active-path" data-old_color="#000000" fill="#FFFFFF"/>
		</g>
	</g>
</g></g> </svg>
